<?xml version="1.0" encoding="UTF-8"?>
<svg version="1.1" xmlns="http://www.w3.org/2000/svg" width="2915" height="3773">
<path d="M0 0 C2.48806772 -0.00067618 4.97613538 -0.0016488 7.46420288 -0.00289917 C12.62897381 -0.00435864 17.79372723 -0.00227689 22.95849609 0.00244141 C29.54345385 0.00816781 36.12837109 0.00483019 42.71332741 -0.00113106 C47.83169862 -0.00475874 52.95006034 -0.00358847 58.06843185 -0.00100327 C60.49627055 -0.00034165 62.92411014 -0.00113528 65.35194778 -0.00348282 C96.26831999 -0.02685268 96.26831999 -0.02685268 106.2109375 2.1328125 C102.36657816 89.50603641 88.49311086 175.88850465 12.52929688 384.32861328 C11.28426393 386.97684447 10.05071541 389.63010339 8.8203125 392.28515625 C4.0634408 402.50487736 -1.02173698 412.51585651 -6.35107422 422.44824219 C-7.9231353 425.38311208 -9.48299045 428.32431622 -11.04296875 431.265625 C-18.93918761 446.10260459 -27.17002434 460.7041343 -35.7890625 475.1328125 C-36.12397705 475.6935144 -36.4588916 476.25421631 -36.80395508 476.83190918 C-46.15373672 492.47200038 -55.71849452 507.94370721 -65.7890625 523.1328125 C-66.90630077 524.82809154 -68.02348715 526.52340478 -69.140625 528.21875 C-81.89378961 547.51320568 -95.14537025 566.45860001 -108.7890625 585.1328125 C-109.34803223 585.90044922 -109.90700195 586.66808594 -110.48291016 587.45898438 C-118.53481308 598.5096366 -126.79460205 609.37438339 -135.22851562 620.13574219 C-137.43196334 622.95554855 -139.61126685 625.79313778 -141.7890625 628.6328125 C-145.17786362 633.0488614 -148.58881084 637.4467095 -152.01196289 641.83618164 C-157.2273285 648.52444678 -162.39937425 655.23545852 -167.46875 662.03515625 C-175.4402826 672.67728647 -183.58824624 683.18598767 -191.76171875 693.67333984 C-195.18317539 698.06401785 -198.58974475 702.46537222 -201.9765625 706.8828125 C-206.73651775 713.08164311 -211.56067855 719.22819427 -216.39794922 725.36669922 C-218.23926291 727.70437266 -220.07767228 730.04432013 -221.91577148 732.38452148 C-222.8329929 733.55220549 -223.75047437 734.71968527 -224.66821289 735.88696289 C-226.93916592 738.77562157 -229.20714158 741.66651785 -231.46875 744.5625 C-236.88852661 751.4947724 -242.38920401 758.3538547 -247.95263672 765.17138672 C-251.44413566 769.4569251 -254.8871103 773.77592634 -258.2890625 778.1328125 C-262.76943665 783.87083554 -267.3442546 789.52652745 -271.94873047 795.1652832 C-275.49017968 799.51036492 -278.9705943 803.89732765 -282.4140625 808.3203125 C-286.43934226 813.48471209 -290.59795177 818.51395355 -294.85131836 823.49169922 C-298.94173433 828.28428468 -302.88983805 833.18336714 -306.7890625 838.1328125 C-303.00745922 842.12370298 -298.97962141 845.34294945 -294.5390625 848.5703125 C-282.71439494 857.30336648 -271.49727648 866.77809949 -260.31298828 876.30981445 C-257.07980489 879.06151375 -253.79497865 881.73498267 -250.4765625 884.3828125 C-244.94457878 888.87653535 -239.78211411 893.73140527 -234.62182617 898.64160156 C-230.6995254 902.37072692 -226.71138243 905.99163573 -222.60620117 909.51904297 C-220.13495896 911.71371058 -217.84487539 914.06728502 -215.52905273 916.42358398 C-213.89222611 918.03147274 -212.20494466 919.50469466 -210.44921875 920.98046875 C-204.56408415 926.09933094 -199.11027371 931.66252442 -193.60717773 937.18432617 C-191.73076775 939.06609524 -189.84907281 940.94245988 -187.96679688 942.81835938 C-177.06293031 953.71681074 -177.06293031 953.71681074 -172.17211914 959.53540039 C-170.62372749 961.32377224 -168.9775985 962.97687089 -167.2890625 964.6328125 C-164.27492668 967.60016573 -161.48988917 970.70626542 -158.73046875 973.91015625 C-156.50102189 976.46258133 -154.20904868 978.95168764 -151.9140625 981.4453125 C-147.84366194 985.90804082 -143.98729341 990.4953925 -140.1953125 995.1953125 C-137.4912675 998.49635444 -134.70773389 1001.72026865 -131.9140625 1004.9453125 C-126.45161488 1011.27357841 -121.26233217 1017.7839932 -116.14355469 1024.39160156 C-114.79719658 1026.12235607 -113.43990143 1027.84385775 -112.078125 1029.5625 C-105.15588884 1038.30193184 -98.41514578 1047.16688049 -91.7890625 1056.1328125 C-91.28149414 1056.81794922 -90.77392578 1057.50308594 -90.25097656 1058.20898438 C-81.32947973 1070.28818451 -72.9447429 1082.7002512 -64.69091797 1095.24316406 C-62.95940281 1097.87400019 -61.22053755 1100.49981867 -59.48046875 1103.125 C-45.47169371 1124.36088623 -32.4679206 1146.204483 -20.24023438 1168.50927734 C-19.2729467 1170.25801109 -18.28979718 1171.99806469 -17.29101562 1173.72900391 C-16.83146484 1174.52870605 -16.37191406 1175.3284082 -15.8984375 1176.15234375 C-15.49077148 1176.85077393 -15.08310547 1177.5492041 -14.66308594 1178.26879883 C-13.7890625 1180.1328125 -13.7890625 1180.1328125 -13.7890625 1183.1328125 C-28.32811464 1187.14226112 -42.90690579 1190.95687988 -57.54296875 1194.59375 C-58.32557949 1194.78824738 -59.10819023 1194.98274475 -59.91451645 1195.18313599 C-64.01641229 1196.2019927 -68.11872024 1197.21918043 -72.22119141 1198.23571777 C-99.29019045 1204.94484093 -126.32293738 1211.77129526 -153.2890625 1218.8828125 C-174.54564462 1224.48676888 -195.8314015 1229.95053174 -217.1640625 1235.2578125 C-218.49748876 1235.58966531 -219.83091365 1235.9215236 -221.16433716 1236.25338745 C-223.81361797 1236.91266815 -226.46291705 1237.57187537 -229.11222839 1238.23103333 C-229.76519583 1238.39349863 -230.41816326 1238.55596394 -231.09091759 1238.72335243 C-232.40682669 1239.05074378 -233.72274592 1239.37809447 -235.03867531 1239.70540428 C-270.10501417 1248.42853076 -305.12171752 1257.33003543 -340.0038147 1266.76475525 C-354.02561584 1270.55273249 -368.06299483 1274.28254879 -382.1015625 1278.0078125 C-382.83754795 1278.20321499 -383.5735334 1278.39861748 -384.33182144 1278.59994125 C-403.98693197 1283.81739314 -423.66749445 1288.89565107 -443.4140625 1293.7578125 C-461.98211131 1298.3340642 -480.42488706 1303.27368345 -498.84234619 1308.42089844 C-522.42505773 1315.0062991 -546.09153268 1321.25433393 -569.77480698 1327.46704102 C-608.38617863 1337.59645127 -608.38617863 1337.59645127 -646.8565979 1348.24575806 C-669.94036966 1354.80109433 -693.12963346 1360.95430031 -716.31582642 1367.13473511 C-717.45330259 1367.43794489 -717.45330259 1367.43794489 -718.61375809 1367.74728012 C-720.14615091 1368.15573272 -721.67855807 1368.56413157 -723.21097946 1368.97247696 C-736.00877301 1372.38314035 -748.79551847 1375.83319179 -761.57861328 1379.29858398 C-852.16810509 1403.85611959 -943.01988458 1427.43116502 -1129.28926849 1472.56835938 C-1132.0169809 1473.18427644 -1134.74448827 1473.80109669 -1137.47198486 1474.41796875 C-1193.85599511 1487.16567658 -1250.2434891 1499.82318533 -1307.03960419 1510.61010742 C-1310.00793457 1511.17442271 -1312.97594382 1511.74040619 -1315.94390869 1512.30664062 C-1372.61188666 1523.11429237 -1429.27253011 1533.76381019 -1486.35097218 1542.1773119 C-1491.63224893 1542.95749422 -1496.91058164 1543.75609324 -1502.18798828 1544.56201172 C-1502.9902459 1544.68452081 -1503.79250351 1544.8070299 -1504.61907196 1544.93325138 C-1505.42900856 1545.05693812 -1506.23894516 1545.18062487 -1507.07342529 1545.30805969 C-1596.05383496 1558.894725 -1685.34352806 1570.06336886 -2092.42113495 1598.19603729 C-2094.38187126 1598.25496659 -2096.34257831 1598.3148671 -2098.30328369 1598.37481689 C-2146.55356227 1599.82725642 -2194.83094273 1600.39994073 -2243.1015625 1600.4453125 C-2245.04893499 1600.44770117 -2245.04893499 1600.44770117 -2247.03564835 1600.45013809 C-2293.90932878 1600.502286 -2340.74264715 1599.67007747 -2387.59772825 1598.38537169 C-2389.94765767 1598.32110302 -2392.29760388 1598.2574865 -2394.6475563 1598.19406509 C-2451.47841478 1596.65765639 -2508.35971245 1594.87043832 -2565.07003021 1590.74470901 C-2567.58861541 1590.56219225 -2570.1074178 1590.38294205 -2572.62628174 1590.20431519 C-2640.86366596 1585.35431981 -2709.07496714 1579.68645956 -2777.1640625 1573.0703125 C-2777.9239724 1572.99680195 -2778.68388229 1572.9232914 -2779.46681976 1572.84755325 C-2784.33288796 1572.37660833 -2789.19795934 1571.89663352 -2794.0625 1571.41015625 C-2795.83735779 1571.23587601 -2795.83735779 1571.23587601 -2797.64807129 1571.05807495 C-2798.70699585 1570.94988434 -2799.76592041 1570.84169373 -2800.85693359 1570.73022461 C-2802.22596329 1570.59226723 -2802.22596329 1570.59226723 -2803.62265015 1570.45152283 C-2805.7890625 1570.1328125 -2805.7890625 1570.1328125 -2807.7890625 1569.1328125 C-2807.7890625 1214.3828125 -2807.7890625 859.6328125 -2807.7890625 494.1328125 C-2737.34227485 480.27442804 -2737.34227485 480.27442804 -2710.61219764 475.38365173 C-2706.51848369 474.6337217 -2702.42561042 473.87922413 -2698.33259583 473.12548828 C-2689.67596613 471.5321963 -2681.01833392 469.94440772 -2672.36043167 468.35804749 C-2666.95070283 467.36679058 -2661.54123384 466.37412046 -2656.13180542 465.38122559 C-2636.61386295 461.79900477 -2617.09484239 458.22272159 -2597.57446003 454.65382004 C-2588.16327736 452.93315864 -2578.75255166 451.21004107 -2569.34228516 449.484375 C-2501.66079443 437.07823002 -2433.80398163 425.72776906 -2365.87890625 414.73828125 C-2365.06899609 414.60724314 -2364.25908592 414.47620502 -2363.42463303 414.34119606 C-2356.26200955 413.18262848 -2349.09921146 412.02514593 -2341.93591309 410.87075806 C-2321.67911096 407.60497519 -2301.44034479 404.24365386 -2281.21484375 400.7890625 C-2279.55427004 400.5054398 -2279.55427004 400.5054398 -2277.86014938 400.21608734 C-2272.18970619 399.24730648 -2266.51939472 398.2777562 -2260.84912109 397.3079834 C-2226.65177858 391.45988881 -2192.44817199 385.70133507 -2158.1640625 380.3828125 C-2156.90933954 380.18809734 -2156.90933954 380.18809734 -2155.62926865 379.98944855 C-2148.0580212 378.81490355 -2140.48630539 377.64339541 -2132.91419983 376.47439575 C-2113.86504351 373.53258293 -2094.82555505 370.5303937 -2075.7890625 367.5078125 C-2074.89801567 367.36644741 -2074.00696884 367.22508232 -2073.08892059 367.07943344 C-2049.3918618 363.31920527 -2025.70936431 359.47598868 -2002.0390625 355.55078125 C-2000.84929998 355.35349426 -1999.65953747 355.15620728 -1998.43372154 354.95294189 C-1987.42269224 353.12659628 -1976.41208635 351.29770397 -1965.40176392 349.46710205 C-1932.94651777 344.07285008 -1900.47072477 338.85216985 -1867.95409393 333.8417511 C-1834.16995316 328.63446897 -1800.47057227 323.07431957 -1766.81152344 317.11279297 C-1763.25071474 316.48238691 -1759.68983678 315.85237376 -1756.12890625 315.22265625 C-1755.22940372 315.06350739 -1754.3299012 314.90435852 -1753.40314102 314.74038696 C-1736.81797078 311.80934764 -1720.21459717 308.99096873 -1703.60546875 306.19921875 C-1702.34470268 305.98723532 -1701.08393661 305.77525188 -1699.78496552 305.55684471 C-1694.64579658 304.6928196 -1689.50659047 303.82901584 -1684.36735535 302.96538448 C-1640.76185985 295.63625853 -1597.2249653 288.10634788 -1553.81738281 279.68359375 C-1545.20639636 278.01401168 -1536.58809246 276.38362285 -1527.96875 274.7578125 C-1527.2122113 274.61510988 -1526.45567261 274.47240726 -1525.6762085 274.32538033 C-1522.59316734 273.74391625 -1519.51011417 273.16251603 -1516.42702484 272.58130741 C-1510.96013407 271.55040904 -1505.49402308 270.5154489 -1500.02832031 269.47827148 C-1486.13318525 266.8420068 -1472.23731966 264.21101308 -1458.33229065 261.62736511 C-1403.43794738 251.42697566 -1348.75039399 240.24146849 -1294.07397461 228.94015503 C-1278.49070583 225.7193779 -1262.90409707 222.51547157 -1247.31365776 219.32956886 C-1171.22454076 203.77294959 -1095.30375078 187.44009353 -1019.37257385 171.13394165 C-1018.32870953 170.90977495 -1017.2848452 170.68560825 -1016.20934862 170.45464861 C-1009.91427296 169.10280123 -1009.91427296 169.10280123 -1003.61921382 167.7508769 C-944.70006599 155.09705093 -885.75577362 142.56312065 -826.7890625 130.1328125 C-825.72241615 129.90792397 -824.65576981 129.68303543 -823.55680084 129.45133209 C-795.29774756 123.49390853 -767.02906757 117.58412131 -738.74565887 111.74338531 C-736.73689326 111.32855099 -734.72815079 110.91360458 -732.71942902 110.49855804 C-664.23624425 96.34873051 -595.6777455 82.64322289 -526.95052338 69.72751617 C-523.8288583 69.1402985 -520.70750134 68.55147092 -517.58624268 67.96209717 C-460.74733314 57.23308326 -403.7635 47.51730642 -346.65442657 38.35163879 C-342.67554714 37.71297361 -338.69700491 37.07223578 -334.71855789 36.43088317 C-288.49619222 28.98162089 -242.20092847 22.28849085 -195.7890625 16.1328125 C-193.69897879 15.85448134 -191.60890977 15.57603974 -189.51885986 15.29745483 C-179.13417845 13.91516351 -168.74568647 12.56723225 -158.3515625 11.2578125 C-156.89533419 11.07364435 -155.43910659 10.88947062 -153.98287964 10.70529175 C-119.66798762 6.3737989 -85.34231907 2.83661792 -50.7890625 1.1328125 C-49.97925462 1.09209468 -49.16944674 1.05137686 -48.33509922 1.00942516 C-32.21636363 0.21518952 -16.13644775 -0.0157551 0 0 Z " fill="#060707" transform="translate(2807.7890625,1074.8671875)"/>
<path d="M0 0 C479.78998019 -0.08080295 479.78998019 -0.08080295 663.17446113 -0.09632993 C665.74881966 -0.09654868 668.32317819 -0.09676752 670.89753672 -0.09698644 C672.83374835 -0.09715107 672.83374835 -0.09715107 674.80907535 -0.09731903 C719.68337856 -0.10113998 764.55768176 -0.105079 809.43198493 -0.10925537 C813.78867178 -0.10966058 818.14535863 -0.11006297 822.50204547 -0.11046288 C889.84541937 -0.11664458 957.18879254 -0.1244447 1024.53216553 -0.1373291 C1025.24813339 -0.13746597 1025.96410126 -0.13760284 1026.70176512 -0.13774386 C1050.50941307 -0.14229762 1074.317061 -0.14700654 1098.12470892 -0.15173688 C1119.63639244 -0.15601056 1141.14807596 -0.16022849 1162.65975952 -0.16426277 C1163.36649288 -0.16439533 1164.07322624 -0.1645279 1164.80137576 -0.16466448 C1209.09370877 -0.17295787 1253.3860416 -0.17883433 1297.67837524 -0.18227959 C1298.36294724 -0.18233315 1299.04751924 -0.18238672 1299.75283584 -0.18244191 C1329.82464712 -0.18479311 1359.89645841 -0.18664151 1389.96826976 -0.1879158 C1402.06846207 -0.18843087 1414.16865438 -0.18902033 1426.26884668 -0.18965055 C1428.27506489 -0.18975442 1430.28128309 -0.18985588 1432.28750129 -0.18995707 C1474.88461742 -0.19212973 1517.48172835 -0.2006803 1560.07884265 -0.21256442 C1603.01465689 -0.22451383 1645.95046707 -0.23019302 1688.88628302 -0.22724798 C1694.8298315 -0.22684186 1700.77337999 -0.22650708 1706.71692848 -0.22621536 C1707.88195581 -0.2261556 1709.04698315 -0.22609584 1710.24731434 -0.22603427 C1728.63854593 -0.22527521 1747.02976889 -0.23122216 1765.42099813 -0.24001972 C1783.53939093 -0.24854721 1801.65777263 -0.24985205 1819.77616649 -0.24366363 C1829.45451515 -0.2405523 1839.13283752 -0.24051888 1848.81118298 -0.24976636 C1923.18704593 -0.31765286 1923.18704593 -0.31765286 1955 2 C1956.14075025 2.07964453 1957.2815005 2.15928906 1958.45681894 2.24134706 C1964.56286742 2.67019522 1970.6567023 3.16777824 1976.75 3.75 C1977.63425659 3.83236908 1978.51851318 3.91473816 1979.42956543 3.99960327 C2064.07098297 11.94181997 2147.47985009 30.45152729 2327 100 C2328.0096582 100.47324707 2329.01931641 100.94649414 2330.05957031 101.43408203 C2343.22804288 107.61681445 2356.21730883 114.05396052 2369 121 C2369.98919434 121.5357666 2370.97838867 122.0715332 2371.99755859 122.62353516 C2388.62674472 131.65964774 2404.86015483 141.22307922 2420.97070312 151.14453125 C2423.52672131 152.71011299 2426.0926592 154.25435425 2428.671875 155.78125 C2449.45806806 168.13173116 2469.45909345 182.10127157 2488.90332031 196.45654297 C2491.17520977 198.12897953 2493.45806693 199.78571853 2495.7421875 201.44140625 C2504.78697254 208.01976087 2513.59980429 214.80179587 2522.23046875 221.9140625 C2525.81212446 224.86279675 2529.46013462 227.71837171 2533.125 230.5625 C2539.67946613 235.67122335 2545.98074818 241.04501579 2552.25439453 246.49267578 C2553.98187975 247.98435322 2555.72090215 249.46120526 2557.46484375 250.93359375 C2565.03402497 257.33566431 2572.33731543 263.96976785 2579.55078125 270.76953125 C2582.30106598 273.35860526 2585.10084089 275.88045053 2587.9375 278.375 C2593.27941226 283.13334201 2598.28147752 288.22790433 2603.29272461 293.32958984 C2606.12815669 296.20186394 2608.91488506 298.93059859 2612.046875 301.484375 C2615.0875177 304.07455212 2617.53555726 306.83450993 2620.12109375 309.86328125 C2623.39735693 313.58909406 2626.96181303 317.02510796 2630.5 320.5 C2635.31564676 325.22949923 2639.97127008 330.00640523 2644.37402344 335.12451172 C2646.80058619 337.9234389 2649.34096819 340.61126731 2651.875 343.3125 C2656.40901694 348.1810575 2660.68492781 353.19332164 2664.8515625 358.3828125 C2667.01511772 361.01841613 2669.2638956 363.54423375 2671.5625 366.0625 C2675.13765575 369.99517133 2678.50891266 374.03235465 2681.796875 378.20703125 C2683.39843157 380.23737335 2685.01117784 382.2540487 2686.640625 384.26171875 C2694.38236787 393.81976822 2701.7971211 403.60452342 2709.12841797 413.47998047 C2710.91604368 415.88695576 2712.70961618 418.28939727 2714.50390625 420.69140625 C2761.68907498 484.0562621 2800.78024436 553.48396682 2832 626 C2832.30528625 626.70769531 2832.61057251 627.41539062 2832.92510986 628.14453125 C2856.47701306 682.82478586 2874.17668348 739.64083539 2888 797.5 C2888.19008636 798.29124268 2888.38017273 799.08248535 2888.57601929 799.89770508 C2890.80765892 809.22737331 2892.73214552 818.48275026 2894 828 C2804.26328568 856.65280271 2713.4399868 879.41674688 2601.59738159 904.20101929 C2518.95465638 922.47306316 2436.49166745 941.715803 2259.66596508 987.91878128 C2250.0837594 990.52137529 2240.4989591 993.11436834 2230.9140625 995.70703125 C2229.13612268 996.18799486 2227.35818384 996.66896206 2225.58024597 997.14993286 C2222.90461311 997.87374382 2220.22897769 998.5975453 2217.55333233 999.32131004 C2211.27895244 1001.01857935 2205.0047843 1002.71662982 2198.73071289 1004.41503906 C2025.65024966 1051.26679413 2025.65024966 1051.26679413 1926 1077 C1925.13949539 1077.22083252 1924.27899078 1077.44166504 1923.39241028 1077.66918945 C1838.6612025 1099.4072109 1753.67483234 1119.81051073 1361 1193 C1359.81024693 1193.1743671 1359.81024693 1193.1743671 1358.59645844 1193.35225677 C1274.44018629 1205.67419639 1189.92639523 1215.42818243 935.52428436 1236.87958527 C932.7602915 1237.0114347 929.99638381 1237.14498446 927.23248291 1237.27874756 C898.87809366 1238.64928606 870.52039527 1239.93023288 842.15841675 1241.13328552 C830.97037035 1241.60855333 819.78344757 1242.09643207 808.59826756 1242.63515854 C723.18151292 1246.74673801 637.54077409 1245.59832728 552.0625 1244.125 C550.32562298 1244.09552969 550.32562298 1244.09552969 548.55365753 1244.06546402 C501.37196943 1243.26050512 454.18826483 1241.96494001 407.08645248 1239.02431107 C404.59384748 1238.86917106 402.1010957 1238.71657911 399.60830688 1238.56442261 C351.67241203 1235.62969219 303.78356668 1231.98291231 255.90594482 1228.22782135 C253.13997257 1228.01097362 250.37394749 1227.79481218 247.60791016 1227.57879639 C188.21573854 1222.93346596 129.15657243 1216.319853 70.125 1208.3125 C69.2767654 1208.19758335 68.42853081 1208.0826667 67.55459213 1207.96426773 C62.60313754 1207.29283508 57.65242492 1206.61623919 52.70256233 1205.9331665 C51.21985254 1205.7287061 49.7370374 1205.52500731 48.25408745 1205.32229614 C32.13122552 1203.11386558 16.08245311 1200.5128833 0 1198 C0 802.66 0 407.32 0 0 Z " fill="#060707" transform="translate(10,0)"/>
<path d="M0 0 C1.38568959 -0.00143384 2.77137903 -0.003032 4.15706825 -0.00478554 C11.42836535 -0.01394206 18.69964459 -0.01813378 25.97094727 -0.01733398 C31.84076701 -0.01680461 37.71051959 -0.02379946 43.58032227 -0.0378418 C156.6887603 -0.3022979 156.6887603 -0.3022979 200.64453125 5.16796875 C222.86180886 95.33256988 233.60752751 186.72734441 184.33343506 575.04193115 C183.63117644 577.20918325 182.93694391 579.37886892 182.24462891 581.54931641 C171.29323193 615.82617074 158.43483977 649.3644713 143.64453125 682.16796875 C143.13776855 683.2957373 142.63100586 684.42350586 142.10888672 685.58544922 C129.67628532 713.12752792 116.39426501 740.38810284 101.18017578 766.50683594 C99.58727347 769.2671913 98.03149954 772.04578115 96.484375 774.83203125 C73.0313318 817.03033778 45.31962199 857.11684433 15.64453125 895.16796875 C14.7538744 896.31768366 13.86325041 897.46742403 12.97265625 898.6171875 C7.56245564 905.57686036 1.99552499 912.37254109 -3.73046875 919.07421875 C-6.19462839 921.96348195 -8.59207875 924.90315333 -10.98046875 927.85546875 C-14.6038137 932.30700683 -18.37510747 936.5917933 -22.23828125 940.8359375 C-24.13598044 942.92620764 -26.0028029 945.0378299 -27.85546875 947.16796875 C-31.9686326 951.88351816 -36.15400674 956.53107671 -40.35546875 961.16796875 C-41.11867432 962.0180249 -41.88187988 962.86808105 -42.66821289 963.74389648 C-51.99270045 974.00267333 -61.80849386 983.77413815 -71.62011719 993.56298828 C-74.12005087 996.05718629 -76.61541156 998.55590396 -79.10950089 1001.05594444 C-81.06039714 1003.01047884 -83.01369893 1004.96259533 -84.96770477 1006.91402054 C-86.3292788 1008.2746212 -87.68887176 1009.63720345 -89.04840088 1010.99984741 C-93.45420962 1015.38915401 -97.91408787 1019.64697727 -102.64024353 1023.69085693 C-105.39166638 1026.0603179 -108.02023704 1028.55912633 -110.66796875 1031.04296875 C-115.53652625 1035.57698569 -120.54879039 1039.85289656 -125.73828125 1044.01953125 C-128.37388488 1046.18308647 -130.8997025 1048.43186435 -133.41796875 1050.73046875 C-137.31826516 1054.27674764 -141.32470738 1057.61366616 -145.46484375 1060.875 C-148.38324173 1063.18999948 -151.26728438 1065.54296213 -154.14916992 1067.90307617 C-160.85660676 1073.38940544 -167.62475166 1078.75285063 -174.61035156 1083.88378906 C-176.65236753 1085.38644771 -178.68741379 1086.89833663 -180.72265625 1088.41015625 C-228.54306654 1123.87663229 -278.86523902 1155.38384001 -331.93164062 1182.42236328 C-334.19814774 1183.57791989 -336.46251003 1184.73769391 -338.72460938 1185.90185547 C-414.09819628 1224.67135135 -495.68272127 1252.6561152 -850.98042014 1294.41506792 C-860.66387231 1294.40614489 -870.34731299 1294.4093418 -880.03076738 1294.41266827 C-898.11624821 1294.41855078 -916.20171601 1294.41511427 -934.28719521 1294.4063797 C-952.58042805 1294.39758404 -970.87365417 1294.39323906 -989.16688919 1294.39418411 C-990.32779264 1294.3942415 -991.4886961 1294.39429888 -992.68477844 1294.394358 C-998.60555563 1294.39467081 -1004.52633281 1294.3950547 -1010.44710998 1294.39546368 C-1053.16263955 1294.39826936 -1095.87816314 1294.39144947 -1138.59369087 1294.37942886 C-1180.8632771 1294.3675623 -1223.13286077 1294.35987436 -1265.40244865 1294.35772324 C-1266.71778837 1294.35765441 -1268.03312809 1294.35758559 -1269.38832659 1294.35751468 C-1281.40287653 1294.35688823 -1293.41742647 1294.3563117 -1305.43197642 1294.35579873 C-1335.2916334 1294.35452153 -1365.15129032 1294.35260291 -1395.01094723 1294.35024834 C-1395.69049618 1294.35019507 -1396.37004513 1294.3501418 -1397.07018647 1294.35008692 C-1441.03304871 1294.3466357 -1484.99591012 1294.34054571 -1528.95877171 1294.33223152 C-1529.65992188 1294.33209894 -1530.36107205 1294.33196637 -1531.0834692 1294.33182977 C-1552.42403977 1294.32778894 -1573.76461029 1294.32355199 -1595.10518081 1294.31927663 C-1618.72059253 1294.3145464 -1642.33600426 1294.30984965 -1665.95141602 1294.30529785 C-1666.66160286 1294.30516085 -1667.3717897 1294.30502385 -1668.10349735 1294.3048827 C-1735.63726398 1294.29186612 -1803.17103088 1294.2842555 -1870.70479843 1294.27803028 C-1873.56759256 1294.277766 -1876.43038668 1294.27750015 -1879.2931808 1294.27723425 C-1905.63851189 1294.27478731 -1931.98384298 1294.27240364 -1958.32917408 1294.27009941 C-1959.02975979 1294.27003813 -1959.73034551 1294.26997685 -1960.45216109 1294.26991371 C-1962.57334689 1294.26972819 -1964.69453268 1294.26954268 -1966.81571848 1294.26935718 C-2024.11078664 1294.26434634 -2081.40585475 1294.25878396 -2138.70092283 1294.25286391 C-2140.72217592 1294.2526552 -2142.74342902 1294.25244692 -2144.76468211 1294.25223876 C-2227.76805365 1294.24368854 -2310.77142464 1294.23273809 -2393.77479553 1294.2192688 C-2397.12121498 1294.21872713 -2400.46763443 1294.21818548 -2403.81405388 1294.21764402 C-2496.66119242 1294.20254666 -2589.50833053 1294.18493092 -2682.35546875 1294.16796875 C-2682.35546875 1026.20796875 -2682.35546875 758.24796875 -2682.35546875 482.16796875 C-2635.12620726 472.95250309 -2635.12620726 472.95250309 -2617.5234375 469.8125 C-2615.4122274 469.43351446 -2613.30105871 469.05429821 -2611.18992615 468.67488098 C-2605.50387003 467.65394434 -2599.817067 466.6372293 -2594.13007355 465.62152863 C-2590.46378669 464.96631794 -2586.79774571 464.30974759 -2583.1317749 463.652771 C-2550.32779566 457.77433247 -2517.51423237 451.95065734 -2484.6953125 446.15625 C-2483.84801779 446.00665054 -2483.00072309 445.85705107 -2482.12775278 445.70291829 C-2472.58832329 444.018664 -2463.0488112 442.33487769 -2453.50927734 440.6512146 C-2452.64188875 440.49812566 -2451.77450016 440.34503672 -2450.88082707 440.18730873 C-2446.48854047 439.41210118 -2442.09624847 438.63692421 -2437.70394897 437.8617897 C-2388.79864089 429.2308444 -2339.90642776 420.53298098 -2291.04296875 411.66796875 C-2290.38011006 411.54772575 -2289.71725137 411.42748275 -2289.03430605 411.30359602 C-2264.05593703 406.77237155 -2239.07972988 402.22931372 -2214.11328125 397.6328125 C-2213.40509121 397.50245417 -2212.69690117 397.37209583 -2211.96725082 397.23778725 C-2209.87936624 396.8534598 -2207.79148909 396.46909192 -2205.70361328 396.0847168 C-2203.688349 395.71373222 -2201.67308373 395.34275305 -2199.65781403 394.97179794 C-2198.33384176 394.72805553 -2197.00988235 394.48424324 -2195.68593597 394.24036026 C-2167.85979905 389.11531001 -2139.99819841 384.19260413 -2112.13653564 379.26495361 C-2044.17721944 367.24531307 -1976.2529729 355.0373642 -1674.35546875 298.16796875 C-1673.26836609 297.95590034 -1672.18126343 297.74383194 -1671.06121826 297.52533722 C-1573.19529965 278.43011832 -1475.54522694 258.31506155 -1202.35546875 198.16796875 C-1200.56370335 197.7588475 -1200.56370335 197.7588475 -1198.73574066 197.34146118 C-1149.21493474 186.03351118 -1099.71190056 174.64838375 -1050.22265625 163.203125 C-950.13794872 140.05818336 -850.01285515 117.03146771 -704.81175995 86.66960144 C-702.28163926 86.15289102 -699.75167646 85.63541301 -697.22174072 85.11779785 C-609.23769823 67.12259824 -520.95842968 50.43534946 -82.41796875 1.98046875 C-81.6084375 1.94353912 -80.79890625 1.9066095 -79.96484375 1.86856079 C-53.31157676 0.67538306 -26.67997067 0.00746424 0 0 Z " fill="#060707" transform="translate(2682.35546875,2478.83203125)"/>
</svg>
