<?xml version="1.0" encoding="UTF-8"?>
<svg version="1.1" xmlns="http://www.w3.org/2000/svg" width="534" height="191">
<path d="M0 0 C1.08023438 0.01804688 2.16046875 0.03609375 3.2734375 0.0546875 C4.43746094 0.08949219 4.43746094 0.08949219 5.625 0.125 C5.35684998 12.50865553 0.84729057 22.2506443 -6.375 32.125 C-7.08785156 33.115 -7.80070313 34.105 -8.53515625 35.125 C-10.47009917 37.80047662 -12.41703778 40.46634571 -14.375 43.125 C-13.78847656 43.37636719 -13.20195313 43.62773438 -12.59765625 43.88671875 C-7.3375556 46.81721419 -3.03294681 52.80910638 -0.375 58.125 C-0.375 58.785 -0.375 59.445 -0.375 60.125 C-49.35068722 73.43655354 -49.35068722 73.43655354 -63.875 76.3125 C-64.73343506 76.48354248 -65.59187012 76.65458496 -66.47631836 76.83081055 C-69.10376935 77.31800466 -71.73119437 77.73574315 -74.375 78.125 C-75.59767578 78.30538818 -76.82035156 78.48577637 -78.08007812 78.67163086 C-88.48597115 80.10063544 -98.75846575 80.40655799 -109.25292969 80.33081055 C-111.90048716 80.31232202 -114.5476965 80.31030344 -117.1953125 80.31054688 C-118.91146131 80.30563714 -120.6276078 80.29981121 -122.34375 80.29296875 C-123.11891968 80.29185593 -123.89408936 80.2907431 -124.69274902 80.28959656 C-130.04068481 80.24381637 -134.9985975 79.72237806 -140.375 79.125 C-140.375 61.305 -140.375 43.485 -140.375 25.125 C-136.37421527 23.79140509 -133.18155872 22.8044444 -129.13476562 22.15454102 C-127.62212883 21.90710899 -127.62212883 21.90710899 -126.07893372 21.65467834 C-124.99069809 21.48117355 -123.90246246 21.30766876 -122.78125 21.12890625 C-120.38948591 20.73682283 -117.99780668 20.34422147 -115.60620117 19.95117188 C-114.34601166 19.74548584 -113.08582214 19.5397998 -111.78744507 19.32788086 C-87.34135704 15.32659609 -63.05956889 10.81414115 -38.81640625 5.70532227 C-10.57594316 -0.23502096 -10.57594316 -0.23502096 0 0 Z " fill="#000000" transform="translate(140.375,52.875)"/>
<path d="M0 0 C25.18387573 -0.16043524 25.18387573 -0.16043524 35.97851562 -0.1953125 C43.32344222 -0.21915688 50.66816797 -0.247263 58.01293945 -0.30175781 C63.93926497 -0.34544963 69.86537489 -0.36918632 75.79184914 -0.37950897 C78.04471031 -0.38685859 80.29756066 -0.40120991 82.55032921 -0.42292023 C101.65073927 -0.59955273 116.57084581 1.13534422 131.25 14.6875 C137.46152084 21.24410533 143.72270133 30.62213051 144.125 39.875 C144.08375 40.57625 144.0425 41.2775 144 42 C132.43826796 45.49894522 120.7202487 48.3651079 108.99609375 51.26171875 C104.79336764 52.30032021 100.59735926 53.35755525 96.41015625 54.45703125 C79.38473942 58.90449376 62.00008973 62.14444216 44.35546875 62.16796875 C43.46442947 62.17129715 42.5733902 62.17462555 41.65534973 62.17805481 C39.78220124 62.18308462 37.90904391 62.18546437 36.03588867 62.18530273 C33.20541267 62.18748618 30.37532904 62.20567606 27.54492188 62.22460938 C25.71093881 62.22754493 23.87695392 62.22952864 22.04296875 62.23046875 C21.21443893 62.23765427 20.38590912 62.24483978 19.53227234 62.25224304 C12.66675947 62.22619516 7.01070239 61.1684504 0 60 C0 40.2 0 20.4 0 0 Z " fill="#000000" transform="translate(1,0)"/>
<path d="M0 0 C1.13373047 0.00902344 2.26746094 0.01804687 3.43554688 0.02734375 C6.18643461 0.05055799 8.93684289 0.08320159 11.6875 0.125 C15.64523446 12.83390029 14.082901 25.93893137 8.0625 37.8125 C0.16153961 51.14901054 -11.30389754 60.09089587 -26.3125 64.125 C-31.98584605 65.12590502 -37.45785608 65.26142997 -43.19506836 65.23852539 C-44.16169403 65.23867142 -45.1283197 65.23881744 -46.12423706 65.2389679 C-49.30029593 65.23827455 -52.4762952 65.23050928 -55.65234375 65.22265625 C-57.86194324 65.22079002 -60.07154314 65.21936708 -62.28114319 65.21836853 C-68.08270419 65.21455952 -73.88423995 65.20474307 -79.68579102 65.19366455 C-85.61148741 65.18341564 -91.53718791 65.17886346 -97.46289062 65.17382812 C-109.07943992 65.16311932 -120.69596391 65.14553564 -132.3125 65.125 C-132.3125 51.265 -132.3125 37.405 -132.3125 23.125 C-126.61613281 22.10792969 -126.61613281 22.10792969 -120.8046875 21.0703125 C-115.59812155 20.13481803 -110.39256835 19.1937853 -105.1875 18.25 C-104.51232708 18.12761585 -103.83715416 18.0052317 -103.14152145 17.87913895 C-82.25745487 14.08916402 -61.47805935 9.97531165 -40.77099609 5.29931641 C-27.08981286 2.21305719 -14.098704 -0.21806443 0 0 Z " fill="#000000" transform="translate(132.3125,122.875)"/>
<path d="M0 0 C0 0.66 0 1.32 0 2 C-1.7578125 3.26171875 -1.7578125 3.26171875 -4.125 4.6875 C-17.00190201 13.06354128 -21.35209725 26.68725221 -24.46875 41.1796875 C-24.77038958 43.13196587 -24.91431866 45.02575922 -25 47 C-25.07734375 48.51787109 -25.07734375 48.51787109 -25.15625 50.06640625 C-25.6422417 68.18984663 -21.05872256 85.1962304 -9 99 C0.40041758 107.77980748 12.251665 111.81858773 25 112 C36.99861545 111.33586999 47.53075034 107.44123321 55.79296875 98.515625 C57.08775277 96.99730569 57.08775277 96.99730569 58 95 C58.66 95 59.32 95 60 95 C58.3183962 105.79666075 49.76729096 115.53141752 41.36328125 122.04296875 C25.87062792 132.40823895 9.52526457 133.56691096 -8.62109375 131.609375 C-26.05032551 127.83827908 -39.44482654 117.74585979 -49 103 C-57.86316364 86.21702924 -59.80259271 65.81821782 -55.1640625 47.4375 C-51.28506274 35.98273562 -45.78652162 26.41062764 -37 18 C-36.41089844 17.37996094 -35.82179688 16.75992188 -35.21484375 16.12109375 C-26.94537566 7.9970229 -11.74194559 0 0 0 Z " fill="#000000" transform="translate(471,59)"/>
<path d="M0 0 C-1.15933267 3.47799801 -1.62071165 3.59101354 -4.6875 5.25 C-15.20689253 11.62538941 -19.79202727 22.72913369 -22.8125 34.3125 C-26.93662512 52.84680347 -25.77118851 72.67805242 -16.0625 89.375 C-11.33939625 96.72988296 -6.52483614 101.59703803 1 106 C1.66644531 106.39445312 2.33289063 106.78890625 3.01953125 107.1953125 C13.29642524 112.50078358 27.03039949 113.39924021 38 110 C44.58961801 107.34662298 50.35877811 104.51145099 55 99 C56.33333333 97.66666667 57.66666667 96.33333333 59 95 C59.66 95.33 60.32 95.66 61 96 C53.71319804 112.46536982 42.52243934 123.13376698 26 130 C9.34984586 135.22596079 -10.35071685 133.03263929 -25.8125 125.3125 C-31.5429896 121.93560434 -36.30701768 117.68470545 -41 113 C-41.86431641 112.15308594 -41.86431641 112.15308594 -42.74609375 111.2890625 C-54.73282792 98.52396897 -57.47257059 80.52029691 -57.203125 63.73046875 C-56.61130087 45.8422235 -49.91091984 30.35858103 -37 18 C-36.41089844 17.37996094 -35.82179688 16.75992188 -35.21484375 16.12109375 C-26.94537566 7.9970229 -11.74194559 0 0 0 Z " fill="#000000" transform="translate(328,59)"/>
<path d="M0 0 C5.17885786 23.06200829 4.6706805 46.31869214 4.73822021 69.82788086 C4.75804914 75.27271914 4.79998632 80.71738741 4.83984375 86.16210938 C4.91438368 96.7746862 4.96513122 107.38722365 5 118 C5.60062256 118.2266333 6.20124512 118.4532666 6.82006836 118.68676758 C9.53048987 119.71699562 12.2339147 120.76447067 14.9375 121.8125 C15.88302734 122.16892578 16.82855469 122.52535156 17.80273438 122.89257812 C18.70185547 123.24384766 19.60097656 123.59511719 20.52734375 123.95703125 C21.77632446 124.43619995 21.77632446 124.43619995 23.05053711 124.92504883 C25 126 25 126 26 129 C2.24 129 -21.52 129 -46 129 C-46 128.01 -46 127.02 -46 126 C-40.72 123.36 -35.44 120.72 -30 118 C-29.67 85 -29.34 52 -29 18 C-31.97 17.67 -34.94 17.34 -38 17 C-40.71692059 16.44692701 -43.3220249 15.73035684 -46 15 C-46 14.01 -46 13.02 -46 12 C-39.93259657 10.28556992 -33.86351245 8.57719399 -27.79321289 6.87304688 C-25.7277149 6.29241478 -23.66260787 5.71039002 -21.59790039 5.12695312 C-18.63268722 4.28931424 -15.6661111 3.45666882 -12.69921875 2.625 C-11.7741301 2.36251465 -10.84904144 2.1000293 -9.8959198 1.82958984 C-9.03525406 1.58934082 -8.17458832 1.3490918 -7.2878418 1.1015625 C-6.53061325 0.88838379 -5.7733847 0.67520508 -4.99320984 0.45556641 C-3 0 -3 0 0 0 Z " fill="#000000" transform="translate(212,59)"/>
<path d="M0 0 C12.10749558 -0.80716637 23.39820002 4.55648078 33.25 11.1875 C46.4331664 24.67028382 51 39.47376889 51 58 C25.59 58 0.18 58 -26 58 C-26 57.34 -26 56.68 -26 56 C-21.03825297 55.56784413 -16.07610139 55.14079208 -11.11352539 54.71826172 C-9.42883743 54.57412247 -7.74426371 54.42864079 -6.05981445 54.28173828 C-3.62480737 54.06962211 -1.18941674 53.86249614 1.24609375 53.65625 C1.98709824 53.59062866 2.72810272 53.52500732 3.49156189 53.45739746 C8.67695194 53.02487368 13.7964157 52.94600691 19 53 C18.51477939 28.58100614 18.51477939 28.58100614 8 7 C5.23024761 4.3590733 3.60302313 3.20100771 0 2 C0 1.34 0 0.68 0 0 Z " fill="#000000" transform="translate(483,59)"/>
<path d="M0 0 C11.99122386 -0.79941492 24.48310436 4.38249069 33.8125 11.75 C43.78335722 21.11435739 49.80230252 34.44993005 51 48 C51 51.3 51 54.6 51 58 C25.59 58 0.18 58 -26 58 C-26 57.34 -26 56.68 -26 56 C-21.05661173 55.5672713 -16.11277326 55.14025581 -11.16845703 54.71826172 C-9.49059109 54.57427898 -7.81285246 54.4288037 -6.13525391 54.28173828 C2.59534756 53.51735566 11.22634934 52.78557269 20 53 C18.82690244 26.73858961 18.82690244 26.73858961 5.875 5 C3.12109638 2.88360639 3.12109638 2.88360639 0 2 C0 1.34 0 0.68 0 0 Z " fill="#000000" transform="translate(340,59)"/>
<path d="M0 0 C0.66 6.6 1.32 13.2 2 20 C-1.62331436 21.20777145 -4.42957271 20.98736551 -8.25 20.875 C-16.49695561 20.73058327 -23.9936266 22.06742711 -32 24 C-30.71684251 17.28229312 -26.06041857 12.33480654 -20.59765625 8.484375 C-7.82814129 0 -7.82814129 0 0 0 Z " fill="#000000" transform="translate(255,59)"/>
</svg>
